# xmcd CD database file
#
# Track frame offsets:
#	182
#	23985
#	50192
#	77915
#	110010
#	144925
#	179170
#
# Disc length: 2941 seconds
#
# Revision: 2
# Processed by: cddbd v1.5PL3 Copyright (c) Steve Scherf et al.
# Submitted via: CDex 1.50
#
DISCID=650b7b07
DTITLE=Hilliard Ensemble - Heinrich Schutz - Opus Ultimum (Der Schanengesang) CD 1 of 2
DYEAR=1985
DGENRE=Classical
TTITLE0=Psalm 119: Aleph and Beth: Wohl denen, die ohne Wandel leben
TTITLE1=Gimel and Daleth: Tue wohl deinem Knechte
TTITLE2=He and Vau: Zeige mir, Herr, den Weg deiner Rechte
TTITLE3=Dsaon and Chet: Gedenke deinem Knechte an dein Wort
TTITLE4=Thet and Jod: Du tust Guts deinem Knechte, Herr
TTITLE5=Caph and Lamed: Meine Seele verlanget nach deinem Heil
TTITLE6=Mem and Nun: Wie habe ich dein Gesetze so lieb
EXTD=YEAR: 1985
EXTT0=
EXTT1=
EXTT2=
EXTT3=
EXTT4=
EXTT5=
EXTT6=
PLAYORDER=
